<svg height="330" viewBox="0 0 330 330" width="330" xmlns="http://www.w3.org/2000/svg"><g fill="none" fill-rule="evenodd"><circle cx="165" cy="165" fill="#fff" fill-rule="nonzero" r="165"/><g transform="translate(15 15)"><path d="m111.435484 39.1451613c.919355 1.1129032 1.403226 2.3709677 1.403226 3.6290322 0 2.2258065-1.306452 4.3064517-3.580645 5.2741936-40.4032263 16.2096774-68.9516134 55.7903229-68.9516134 101.8548389 0 47.564516 30.3387097 88.112903 72.6774194 103.354839l1.306452.435483c3 1.016129 4.5 4.403226 3.338709 7.354839-.919355 2.225807-3 3.629032-5.274193 3.629032-.580645 0-1.161291-.096774-1.790323-.290322-47.3709676-16.403226-81.5322579-61.5-81.5322579-114.483871 0-50.8548389 31.5-94.5000002 76.0645159-112.3548389 2.225807-.8709677 4.741936-.1935484 6.33871 1.5967742zm81.532258-1.983871c.620968 0 1.241935.0813172 1.862903.3184924l.169355.0686044c44.564516 17.8548387 76.112903 61.5 76.112903 112.3548389 0 33.870968-13.983871 64.548387-36.483871 86.564516-2.274193 2.177419-5.903226 2.129032-7.887097-.33871l-.435483-.483871c-1.790323-2.129032-1.596775-5.32258.435483-7.306451 20.419355-19.935484 33.096775-47.709678 33.096775-78.435484 0-46.016129-28.596775-85.5967744-68.951613-101.8548389-3.483871-1.4032258-4.645162-5.6612903-2.516129-8.6129032l.290322-.3387097c1.112904-1.2580645 2.709678-1.9354839 4.306452-1.9354839zm-35.322581 91.4999997c-.435484 3.435484-3.241935 6.241936-6.677419 6.67742-5.080645.629032-9.33871-3.629033-8.66129-8.709678.435483-3.435484 3.241935-6.241935 6.677419-6.677419 5.080645-.629032 9.33871 3.629032 8.66129 8.709677zm-4.471773-99.6290319c.011135 0 .022102.010217.0329.0307118l2.202483.0157783.1315.0001529c.290322 0 .483871.2419355.483871.483871v17.4677419c0 .4354839.580645.6774193.870967.3387097l14.129033-16.4032258c.096774-.1451613.290322-.1935484.483871-.1451613l3.501778.7836272 1.775899.4039857 1.332069.3077904 1.252329.2945728.886396.2125161.84069.2055078.534886.1332019.7637.1942334.48322.125855c.319893.0913978.467145.4849164.278707.7321701l-20.649674 23.9452493c-.290323.2903225-.048387.8225806.387096.8225806h19.258065c.290323 0 .483871.1935484.483871.483871v10.6451613c0 .2903225-.193548.4838709-.483871.4838709h-64.45239c-.269585 0-.455727-.1668861-.480944-.4231755l-.002927-.0606954v-10.6451613c0-.2695853.166886-.4557275.423176-.4809438l.060695-.0029272h19.258065c.416549 0 .656015-.4869809.421974-.7834041l-.034878-.0391765-20.612903-23.9032259c-.241935-.2419354-.096774-.6774193.241936-.7741935l.483221-.125855.763699-.1942334.810015-.2009371.565561-.1377726 1.191955-.2849438 1.938394-.451725 2.116345-.4821962 3.501777-.7836272c.172043-.0430108.344086-.009558.448162.1003584l.035709.0448029 14.129033 16.4032258c.278225.3245967.823084.1159274.868006-.2853103l.002961-.0533994v-17.4677419c0-.2246544.166887-.4493088.423176-.4802561l.060695-.0036149 2.333331-.01473c.01145-.021696.022417-.031913.033553-.031913l3.246948.0109782z" fill="#ecb731"/><path d="m149.998095 0c82.692498 0 149.998094 67.3055967 149.998094 149.998095 0 44.854269-19.790071 85.111822-51.096125 112.692117-1.935459 1.693527-3.919305 3.387053-5.999924 4.983807-.67741.532252-1.354821 1.064503-2.080618 1.596754-.435479.338706-.532252.96773-.14516 1.403208 10.209548 12.290167 15.773993 18.967501 16.741723 20.08039 1.983846 2.419324 1.693527 5.951538-.725797 7.935383-2.419324 1.983846-5.951537 1.693527-7.935383-.725797l-11.903075-14.274012c-1.741913-2.080619-3.580599-4.306397-5.516059-6.677335-.290319-.387091-.870956-.435478-1.258048-.193546-1.064503.677411-2.129006 1.306436-3.193508 1.93546-22.548101 13.499828-48.821961 21.241665-76.88612 21.241665-5.951538 0-11.903075-.338705-17.661066-1.064502-9.290205-1.112889-18.386863-3.048349-27.09643-5.757992-60.9185813-19.064274-105.240599-76.06355-105.240599-143.1756 0-81.8699281 65.9991617-148.6432735 147.530384-149.998095zm-6.290243 259.69025-8.516021 21.338438c-.241932.580638.14516 1.258049.774184 1.306435.435478.048387.870957.096773 1.306435.14516 2.854802.241932 5.709605.435478 8.564407.532251l1.645141.048387c.580637 0 2.129005 0 3.048348.048386.435478 0 .82257-.290319.919343-.677411l5.757992-18.773955c.145159-.532251-.14516-1.112889-.725798-1.209662-1.161275-.241932-2.322551-.532251-3.483826-.82257-2.709643-.677411-5.3709-1.499981-8.080543-2.467711-.483865-.193545-1.016116.048387-1.209662.532252zm73.547453.435478c-.241932-.290319-.629024-.435478-1.016116-.290319-1.354822.387092-2.274165.629025-2.854803.774184-8.032156 2.080619-19.693298 4.306397-33.047967 4.306397-3.483827 0-7.064426-.14516-10.741799-.483865-.435478-.048386-.870957.241932-1.016116.677411l-4.887035 15.919152c-.193546.677411.338706 1.306435 1.016116 1.258049 18.532023-2.080619 35.90277-7.886997 51.338058-16.790109 1.161275-.677411 2.080619-1.209662 2.758029-1.645141.532252-.290319.629025-.967729.241933-1.451594-.532252-.774184-1.161276-1.499981-1.7903-2.274165zm-67.25721-243.1904592c-6.628948 0-13.161123.4838648-19.499753 1.4515944l-2.370937.3870919c-4.258011.6774107-8.419248 1.5483674-12.532099 2.709643l-.82257.2419324c-56.3218655 15.4352878-97.8374672 67.1120508-97.8374672 128.2725645 0 59.854078 39.7253018 110.611498 94.2084812 127.256448 2.419324.774184 4.790261 1.403208 7.257972 2.032232h.048386c1.354822.338705 2.709643.629024 4.064465.919343.483865.096773.919343-.145159 1.112889-.580638l9.677296-24.386787c.193546-.483864 0-1.016116-.483864-1.209662-1.064503-.532251-2.129006-1.112889-3.193508-1.693526-8.999886-4.983808-17.902999-11.806302-26.225474-20.951347-22.5481003-24.773879-29.3222078-56.418638-18.5804088-86.853736 8.8547263-25.112584 28.2577058-44.7574958 47.2735928-47.7574577 16.886883-2.61287 30.773803.0483865 41.27367 7.9837697 8.322475 6.290243 13.935306 15.580447 16.451404 27.09643.241932 1.016116.483864 2.564483.82257 4.741875.096773.483865.483865.82257.967729.82257 1.499981 0 3.048349.048387 4.645103.14516l.629024.048386c3.241894.193546 5.612832 3.145122 5.177354 6.338629-.387092 2.75803-2.661257 4.838649-5.419286 4.887035h-.14516-.387092c-15.773993-.967729-27.677068 3.387054-32.370556 12.145007-3.628987 6.822494-2.274165 15.241742 3.532213 22.112623l1.499981 1.741913c6.04831 7.064426 25.983541 30.822189 59.757305 71.321675.338706.387091.919343.483864 1.306435.145159.774184-.580638 1.499981-1.161276 2.274165-1.693527l.048386-.048386c1.93546-1.596754 3.870919-3.193508 5.757992-4.838649 27.677068-24.3384 45.144588-60.047624 45.144588-99.724539 0-55.7896142-34.499562-103.6922316-83.273136-123.3855298-5.612832-2.2741647-11.370823-4.209624-17.322361-5.6612184h-.048386c-.435479-.1451595-.919343-.2419324-1.403208-.3870919l-.725797-.1451594c-2.516098-.5806378-5.032195-1.1128891-7.596678-1.5483675l-.870957-.1451594c-7.112813-1.2096621-14.370785-1.7902998-21.822303-1.7902998zm16.548177 96.8213512c-7.935383-5.999924-18.919115-7.935383-32.660876-5.806378-14.85465 2.322551-31.015735 19.25782-38.4188667 40.257553-5.4676725 15.532061-10.5966396 45.967158 16.3062447 75.531299 32.806035 35.999542 74.708728 31.935078 95.708462 26.854497.67741-.145159.967729-1.016116.532251-1.548367-1.596754-1.93546-4.548329-5.419286-5.951537-7.112813-.193546-.241933-.532252-.387092-.870957-.338706-5.661219.629025-10.257934.96773-13.790148.96773-16.886882 0-40.886577-4.161237-61.2089-23.612603-26.177086-25.064198-23.709376-52.015469-20.515868-64.595954.919343-3.5806 4.645102-5.564445 8.032156-4.451556l.096773.048386c2.322551 1.451595 3.483827 4.258011 2.709643 6.967654-2.661256 9.725683-5.274126 32.17701 17.419134 53.902541 18.967501 18.144931 42.144626 20.90296 56.950889 20.370709.82257-.048387 1.209662-.96773.725797-1.596754l-6.580561-7.886997c-11.612756-13.838534-21.435212-25.499676-26.128701-30.918962-8.999885-10.403093-10.983731-24.144854-5.128967-35.080199l.14516-.290319c2.516097-4.54833 8.757953-12.580486 22.451328-16.161085.338705-.096773 1.403207-.338706 2.225778-.532252.483865-.096773.82257-.580637.725797-1.064502-.193546-1.403208-.483865-2.854803-.82257-4.354784-1.596754-6.774107-4.983808-14.274012-11.951461-19.548138z" fill="#00363d"/></g></g></svg>