<svg xmlns="http://www.w3.org/2000/svg" width="330" height="330"><g fill="none" fill-rule="evenodd"><circle cx="165" cy="165" r="165" fill="#fff" fill-rule="nonzero"/><path fill="#ecb731" d="M126.435 54.145c.92 1.113 1.404 2.371 1.404 3.63 0 2.225-1.307 4.306-3.58 5.273-40.404 16.21-68.953 55.79-68.953 101.855 0 47.565 30.34 88.113 72.678 103.355l1.306.436c3 1.016 4.5 4.403 3.339 7.354-.92 2.226-3 3.63-5.274 3.63a6.01 6.01 0 0 1-1.79-.29c-47.371-16.404-81.533-61.5-81.533-114.485 0-50.855 31.5-94.5 76.065-112.355 2.226-.87 4.742-.193 6.338 1.597zm81.533-1.984c.62 0 1.242.082 1.863.319l.169.068c44.565 17.855 76.113 61.5 76.113 112.355 0 33.871-13.984 64.549-36.484 86.565-2.274 2.177-5.903 2.129-7.887-.339l-.436-.484c-1.79-2.129-1.596-5.322.436-7.306 20.42-19.936 33.097-47.71 33.097-78.436 0-46.016-28.597-85.597-68.952-101.855-3.484-1.403-4.645-5.66-2.516-8.613l.29-.338a5.773 5.773 0 0 1 4.307-1.936zm-35.323 91.5c-.435 3.436-3.242 6.242-6.677 6.678-5.08.629-9.339-3.63-8.662-8.71.436-3.435 3.242-6.242 6.678-6.677 5.08-.63 9.339 3.629 8.661 8.71zm-4.472-99.629c.012 0 .022.01.033.031l2.203.016h.131c.29 0 .484.242.484.484V62.03c0 .435.58.677.871.338l14.13-16.403c.096-.145.29-.194.483-.145l3.502.783 1.776.404 1.332.308 1.252.295.886.212.841.206.535.133.764.194.483.126c.32.092.467.485.279.732l-20.65 23.946c-.29.29-.048.822.387.822h19.258c.29 0 .484.194.484.484V85.11c0 .29-.194.484-.484.484h-64.452c-.27 0-.456-.167-.481-.423l-.003-.06V74.465c0-.27.167-.456.423-.48l.06-.004h19.259c.416 0 .656-.487.422-.783l-.035-.04-20.613-23.903c-.242-.242-.097-.677.242-.774l.483-.126.764-.194.81-.2.565-.139 1.192-.285 1.939-.451 2.116-.483 3.502-.783c.172-.043.344-.01.448.1l.036.045 14.129 16.403c.278.325.823.116.868-.285l.003-.053V44.563c0-.225.167-.45.423-.48l.06-.004 2.334-.015c.011-.022.022-.032.034-.032l3.247.011z"/><path fill="#00363d" d="M164.998 15c82.693 0 149.998 67.306 149.998 149.998 0 44.854-19.79 85.112-51.096 112.692-1.935 1.694-3.92 3.387-6 4.984a77.827 77.827 0 0 1-2.08 1.597c-.436.338-.533.968-.146 1.403 10.21 12.29 15.774 18.967 16.742 20.08 1.984 2.42 1.694 5.952-.726 7.936-2.419 1.984-5.951 1.693-7.935-.726l-11.903-14.274a700.146 700.146 0 0 1-5.516-6.677c-.29-.387-.871-.436-1.258-.194a112.334 112.334 0 0 1-3.194 1.936c-22.548 13.5-48.822 21.241-76.886 21.241-5.951 0-11.903-.339-17.661-1.064-9.29-1.113-18.387-3.049-27.096-5.758C59.322 289.109 15 232.11 15 164.998 15 83.128 81 16.355 162.53 15zm-6.29 259.69-8.516 21.339c-.242.58.145 1.258.774 1.306l1.306.145c2.855.242 5.71.436 8.565.533l1.645.048c.58 0 2.129 0 3.048.048.436 0 .823-.29.92-.677l5.758-18.774c.145-.532-.145-1.113-.726-1.21a90.708 90.708 0 0 1-3.484-.822c-2.71-.678-5.37-1.5-8.08-2.468a.928.928 0 0 0-1.21.532zm73.547.436c-.242-.29-.629-.436-1.016-.29a90.491 90.491 0 0 1-2.855.774c-8.032 2.08-19.693 4.306-33.048 4.306-3.483 0-7.064-.145-10.741-.484-.436-.048-.871.242-1.016.678l-4.888 15.919a.982.982 0 0 0 1.017 1.258c18.532-2.08 35.902-7.887 51.338-16.79 1.16-.678 2.08-1.21 2.758-1.646.532-.29.629-.967.242-1.451-.533-.774-1.162-1.5-1.79-2.274zm-67.257-243.19c-6.629 0-13.161.483-19.5 1.45l-2.37.388c-4.259.677-8.42 1.548-12.533 2.71l-.822.242C73.45 52.16 31.935 103.838 31.935 164.998c0 59.854 39.726 110.612 94.209 127.257 2.42.774 4.79 1.403 7.258 2.032h.048c1.355.338 2.71.629 4.065.92a.98.98 0 0 0 1.112-.582l9.678-24.386c.193-.484 0-1.016-.484-1.21-1.065-.532-2.13-1.113-3.194-1.693-9-4.984-17.903-11.807-26.225-20.952-22.548-24.774-29.322-56.418-18.58-86.854 8.854-25.112 28.257-44.757 47.273-47.757 16.887-2.613 30.774.048 41.274 7.984 8.322 6.29 13.935 15.58 16.451 27.096.242 1.016.484 2.565.823 4.742.097.484.484.823.967.823 1.5 0 3.049.048 4.646.145l.629.048c3.241.194 5.612 3.145 5.177 6.339-.387 2.758-2.661 4.838-5.42 4.887h-.532c-15.774-.968-27.677 3.387-32.37 12.145-3.63 6.822-2.274 15.242 3.532 22.112l1.5 1.742c6.048 7.065 25.984 30.823 59.757 71.322.34.387.92.484 1.307.145.774-.58 1.5-1.161 2.274-1.693l.048-.049c1.936-1.596 3.871-3.193 5.758-4.838 27.677-24.339 45.145-60.048 45.145-99.725 0-55.79-34.5-103.692-83.273-123.385-5.613-2.275-11.371-4.21-17.323-5.662h-.048c-.435-.145-.92-.242-1.403-.387l-.726-.145c-2.516-.58-5.032-1.113-7.597-1.548l-.87-.145c-7.113-1.21-14.371-1.79-21.823-1.79zm16.548 96.82c-7.935-6-18.919-7.935-32.66-5.806-14.855 2.323-31.016 19.258-38.42 40.258-5.467 15.532-10.596 45.967 16.307 75.531 32.806 36 74.709 31.935 95.708 26.855.678-.146.968-1.017.532-1.549-1.596-1.935-4.548-5.42-5.951-7.113a.96.96 0 0 0-.871-.338c-5.661.629-10.258.967-13.79.967-16.887 0-40.887-4.16-61.21-23.612-26.176-25.064-23.708-52.016-20.515-64.596.92-3.58 4.645-5.565 8.032-4.452l.097.049c2.323 1.451 3.484 4.258 2.71 6.967-2.662 9.726-5.274 32.177 17.419 53.903 18.967 18.145 42.144 20.903 56.95 20.37a.985.985 0 0 0 .726-1.596l-6.58-7.887c-11.613-13.839-21.435-25.5-26.129-30.92-9-10.402-10.984-24.144-5.129-35.08l.145-.29c2.516-4.548 8.758-12.58 22.452-16.16.338-.097 1.403-.34 2.226-.533.483-.097.822-.58.725-1.064-.193-1.404-.484-2.855-.822-4.355-1.597-6.774-4.984-14.274-11.952-19.548z"/></g></svg>